<svg width="26" height="26" viewBox="0 0 26 26" fill="none" xmlns="http://www.w3.org/2000/svg">
<path d="M20.5834 9.7502H17.7884L21.3526 6.18603C21.5566 5.98204 21.6712 5.70536 21.6712 5.41687C21.6712 5.12837 21.5566 4.8517 21.3526 4.6477C21.1486 4.44371 20.8719 4.3291 20.5834 4.3291C20.2949 4.3291 20.0183 4.44371 19.8143 4.6477L16.2501 8.20103V5.41687C16.2501 5.12955 16.136 4.854 15.9328 4.65084C15.7296 4.44767 15.4541 4.33353 15.1668 4.33353C14.8794 4.33353 14.6039 4.44767 14.4007 4.65084C14.1976 4.854 14.0834 5.12955 14.0834 5.41687V10.8335C14.0834 11.1209 14.1976 11.3964 14.4007 11.5996C14.6039 11.8027 14.8794 11.9169 15.1668 11.9169H20.5834C20.8707 11.9169 21.1463 11.8027 21.3495 11.5996C21.5526 11.3964 21.6668 11.1209 21.6668 10.8335C21.6668 10.5462 21.5526 10.2707 21.3495 10.0675C21.1463 9.86434 20.8707 9.7502 20.5834 9.7502ZM10.8334 14.0835H5.41676C5.12945 14.0835 4.8539 14.1977 4.65073 14.4008C4.44757 14.604 4.33343 14.8795 4.33343 15.1669C4.33343 15.4542 4.44757 15.7297 4.65073 15.9329C4.8539 16.1361 5.12945 16.2502 5.41676 16.2502H8.20093L4.6476 19.8144C4.54606 19.9151 4.46546 20.0349 4.41046 20.1669C4.35547 20.2989 4.32715 20.4405 4.32715 20.5835C4.32715 20.7265 4.35547 20.8681 4.41046 21.0002C4.46546 21.1322 4.54606 21.252 4.6476 21.3527C4.74831 21.4542 4.86812 21.5348 5.00014 21.5898C5.13215 21.6448 5.27375 21.6731 5.41676 21.6731C5.55978 21.6731 5.70137 21.6448 5.83339 21.5898C5.9654 21.5348 6.08522 21.4542 6.18593 21.3527L9.7501 17.7885V20.5835C9.7501 20.8709 9.86423 21.1464 10.0674 21.3496C10.2706 21.5527 10.5461 21.6669 10.8334 21.6669C11.1207 21.6669 11.3963 21.5527 11.5995 21.3496C11.8026 21.1464 11.9168 20.8709 11.9168 20.5835V15.1669C11.9168 14.8795 11.8026 14.604 11.5995 14.4008C11.3963 14.1977 11.1207 14.0835 10.8334 14.0835Z" fill="#FFFBFB"/>
</svg>
