<svg width="24" height="24" viewBox="0 0 24 24" fill="none" xmlns="http://www.w3.org/2000/svg">
<path d="M7.75 6.5C7.75 4.1528 9.65279 2.25 12 2.25C14.3472 2.25 16.25 4.1528 16.25 6.5C16.25 8.8472 14.3472 10.75 12 10.75C9.65279 10.75 7.75 8.8472 7.75 6.5Z" fill="currentColor"/>
<path d="M14.25 17.5C14.25 15.1528 16.1528 13.25 18.5 13.25C20.8472 13.25 22.75 15.1528 22.75 17.5C22.75 19.8472 20.8472 21.75 18.5 21.75C16.1528 21.75 14.25 19.8472 14.25 17.5Z" fill="currentColor"/>
<path d="M1.25 17.5C1.25 15.1528 3.15279 13.25 5.5 13.25C7.84721 13.25 9.75 15.1528 9.75 17.5C9.75 19.8472 7.84721 21.75 5.5 21.75C3.15279 21.75 1.25 19.8472 1.25 17.5Z" fill="currentColor"/>
</svg>
