<svg width="24" height="24" viewBox="0 0 24 24" fill="none" xmlns="http://www.w3.org/2000/svg">
<path d="M2.75098 15.5866C2.75098 15.5866 3.7241 16.8785 6.7316 17.1466C9.7391 17.4166 13.9504 16.6198 18.7972 19.7698L23.3235 7.10039C23.3235 7.10039 21.1204 5.92102 18.201 5.70539C15.2835 5.48789 12.9566 6.50414 10.3822 6.09914C7.87535 5.70539 7.29785 5.43164 7.29785 5.43164L2.75098 15.5866Z" fill="#FF3D00"/>
<path d="M18.7991 20.3775C18.6829 20.3775 18.5685 20.3438 18.4691 20.28C14.8129 17.9044 11.4941 17.8631 8.82973 17.8294C8.06848 17.82 7.35036 17.8106 6.67911 17.7506C3.49348 17.4656 2.38348 16.1063 2.26723 15.9506C2.21939 15.8871 2.18455 15.8148 2.16468 15.7378C2.14482 15.6609 2.14033 15.5807 2.15148 15.502C2.16263 15.4233 2.18919 15.3475 2.22964 15.2791C2.27009 15.2107 2.32365 15.1509 2.38723 15.1031C2.65161 14.9044 3.02661 14.9531 3.22911 15.2156C3.25723 15.2494 4.16473 16.3088 6.78411 16.5431C7.41036 16.5994 8.10598 16.6088 8.84286 16.6163C11.5091 16.6481 14.7922 16.6894 18.4804 18.8588L22.5697 7.41189C21.7954 7.07439 20.1416 6.45376 18.1579 6.30564C16.8379 6.20814 15.6191 6.37689 14.4416 6.54189C13.0466 6.73689 11.7285 6.92064 10.2885 6.69376C7.82098 6.30564 7.14786 6.02814 7.03911 5.97751C6.96705 5.94369 6.90237 5.89601 6.84876 5.83717C6.79515 5.77834 6.75366 5.70951 6.72667 5.63463C6.69967 5.55975 6.68771 5.48028 6.69145 5.40077C6.6952 5.32126 6.71458 5.24327 6.74848 5.17126C6.81697 5.02591 6.94034 4.91367 7.0915 4.85918C7.24266 4.80469 7.40926 4.81241 7.55473 4.88064C7.56786 4.88626 8.16786 5.13376 10.476 5.49751C11.7416 5.69626 12.9697 5.52564 14.2729 5.34189C15.5141 5.16939 16.7966 4.98939 18.246 5.09814C21.2554 5.32126 23.5129 6.51376 23.6066 6.56439C23.871 6.70501 23.9929 7.02001 23.8916 7.30314L19.3672 19.9725C19.3035 20.1469 19.1666 20.2838 18.9904 20.3419C18.9304 20.3663 18.8647 20.3775 18.7991 20.3775Z" fill="white"/>
<path d="M0.877808 20.5779C0.769058 20.5779 0.656558 20.5554 0.549683 20.5067C0.142808 20.3248 -0.0390666 19.8467 0.142808 19.4398L6.45968 5.33045C6.64156 4.92357 7.12156 4.7417 7.52656 4.92357C7.93343 5.10545 8.11531 5.58357 7.93343 5.99045L1.61656 20.1017C1.55251 20.2439 1.44868 20.3645 1.31759 20.449C1.18651 20.5335 1.03377 20.5783 0.877808 20.5779Z" fill="white"/>
<path d="M6.36224 7.7325C6.30786 7.8225 6.22161 7.9275 6.21036 8.02875C6.18411 8.27812 6.57786 8.27062 6.74661 8.30437C7.01286 8.35687 7.26974 8.44687 7.53786 8.4975C7.74411 8.535 7.93349 8.55 8.14349 8.55H8.46786C8.57099 8.54812 8.77724 8.53875 8.86349 8.48625C8.96661 8.4225 9.02474 8.24062 9.06974 8.1375C9.14849 7.9575 9.24224 7.785 9.31349 7.60125C9.43911 7.275 9.65286 6.99375 9.75224 6.65625C9.78598 6.54187 9.89286 6.26062 9.83286 6.14625C9.72036 5.93062 9.26099 5.98125 9.06411 5.95687C8.68911 5.91187 8.31411 5.84437 7.93911 5.80875C7.86036 5.80125 7.79474 5.805 7.71974 5.77687C7.66724 5.75812 7.61849 5.715 7.56786 5.70187C7.32599 5.63812 7.30536 5.7975 7.21911 5.9625C7.14786 6.09562 7.09724 6.2175 7.05599 6.36375C6.95286 6.71062 6.72036 7.0125 6.55911 7.33687C6.49536 7.4625 6.43724 7.59 6.37161 7.71375C6.36786 7.7175 6.36411 7.725 6.36224 7.7325ZM4.21161 12.7819C4.19286 12.8194 4.17411 12.8587 4.15724 12.8962C4.13474 12.9544 4.13099 13.0144 4.10849 13.0725C4.08224 13.1381 3.98661 13.2281 4.02599 13.3069C4.05036 13.3519 4.19099 13.3762 4.23411 13.3912C4.37099 13.44 4.51349 13.4719 4.65786 13.4981C5.13224 13.5844 5.59723 13.7306 6.07911 13.7831C6.25911 13.8019 6.54411 13.8712 6.69411 13.7362C6.73724 13.6987 6.79349 13.6012 6.81974 13.545C7.02974 13.0725 7.25286 12.6075 7.44411 12.1275C7.51911 11.9437 7.92036 11.1806 7.83974 11.0062C7.77599 10.8694 7.57724 10.9256 7.45161 10.9031C7.15911 10.8506 6.85724 10.8469 6.56099 10.7962C6.23099 10.74 5.88224 10.7531 5.56161 10.6444C5.48474 10.62 5.38161 10.5506 5.30849 10.6031C5.21099 10.6744 5.13599 10.9069 5.07599 11.0156C5.00661 11.1487 4.95599 11.2706 4.91286 11.4169C4.80974 11.7637 4.57724 12.0656 4.41599 12.39C4.35599 12.5175 4.27724 12.6487 4.21161 12.7819Z" fill="white"/>
<path d="M7.92779 10.4887C7.86591 10.633 7.78529 10.7587 7.73091 10.9012C7.65966 11.0849 7.65779 11.0962 7.84341 11.143C8.38904 11.2762 8.95154 11.3324 9.51216 11.3455C9.88904 11.3549 10.399 11.458 10.6597 11.1055C10.8715 10.8187 10.9634 10.4549 11.1134 10.1362C11.2484 9.84553 11.3197 9.53053 11.434 9.23241C11.5109 9.03366 11.7059 8.70366 11.5465 8.50116C11.4753 8.41116 11.1303 8.46928 11.0178 8.46928C10.7478 8.46928 10.4797 8.44303 10.2059 8.44303C9.80841 8.44303 9.42216 8.43366 9.03591 8.34366C8.78279 8.28553 8.73029 8.38303 8.62154 8.60241C8.40779 9.03366 8.34966 9.49678 8.15279 9.92428C8.06841 10.108 8.00654 10.303 7.92779 10.4887ZM5.61779 15.7312C5.49029 15.9712 5.35716 16.2093 5.22029 16.4437C5.14529 16.5693 5.18466 16.5562 5.29341 16.6387C5.36466 16.693 5.41341 16.783 5.49404 16.8205C5.57279 16.858 5.67779 16.8487 5.76779 16.873C6.02466 16.9443 6.28716 16.9912 6.55529 17.0024C6.71466 17.0099 6.87404 17.0324 7.03341 17.053C7.17966 17.0718 7.35029 17.0624 7.49091 17.1018C7.59779 17.1337 7.63529 17.1843 7.75904 17.1468C7.84904 17.1187 7.95216 17.053 8.01029 16.9762C8.27466 16.6143 8.46591 16.1812 8.63466 15.7705C8.82029 15.3205 9.00404 14.8668 9.10904 14.3905C9.13341 14.2799 9.19154 14.1787 9.20841 14.068C9.24029 13.8524 9.12029 13.8074 8.94216 13.8055C8.67404 13.8037 8.41529 13.753 8.15091 13.7212C7.94841 13.6949 7.74029 13.693 7.53591 13.6743C7.35591 13.6555 7.17404 13.6312 6.99404 13.6218C6.90591 13.6162 6.73154 13.5918 6.64529 13.6199C6.56841 13.6462 6.51591 13.7587 6.48591 13.8337C6.44654 13.9349 6.43529 14.0268 6.38654 14.1299C6.33216 14.248 6.28341 14.368 6.22904 14.488C6.03404 14.9099 5.83341 15.3243 5.61779 15.7312Z" fill="white"/>
<path d="M9.41271 13.0332C9.40896 13.0388 9.40709 13.0426 9.40334 13.0482C9.28521 13.2563 8.91021 13.7101 9.08271 13.9538C9.18209 14.0926 9.44646 14.0438 9.58896 14.0495C9.82146 14.057 10.0521 14.0813 10.2846 14.0982C10.5827 14.117 10.9015 14.0945 11.2015 14.132C11.4115 14.1582 11.6196 14.1788 11.8277 14.1995C11.9815 14.2145 12.1183 14.2876 12.2721 14.3045C12.574 14.3345 12.6715 14.1113 12.7708 13.8695C12.8346 13.712 12.9265 13.577 12.9771 13.4138C13.0371 13.2188 13.1327 13.0313 13.2321 12.8532C13.369 12.6113 13.4983 12.3507 13.579 12.0845C13.6277 11.9195 13.7158 11.7338 13.744 11.5632C13.7646 11.432 13.7252 11.3888 13.6127 11.3495C13.5415 11.3251 13.4533 11.3176 13.3727 11.297C13.1271 11.2351 12.889 11.222 12.634 11.1901C12.1821 11.1357 11.6983 11.1113 11.239 11.1113C11.0196 11.1113 10.8077 11.0832 10.5902 11.0851C10.1758 11.087 10.0802 11.6457 9.94896 11.9457C9.79146 12.317 9.61146 12.6788 9.41271 13.0332ZM11.8371 7.6332C11.7133 7.87133 11.6571 8.09445 11.5596 8.3382C11.5258 8.42633 11.5127 8.51445 11.4771 8.59883C11.9946 8.6607 12.5327 8.57258 13.0558 8.59133C13.6915 8.6157 14.3233 8.67383 14.9608 8.68133C15.0621 8.68133 15.0865 8.67945 15.1502 8.60258C15.3527 8.36258 15.3583 7.99695 15.4558 7.71008C15.6302 7.19633 15.7596 6.67133 15.9921 6.17633C16.0708 6.01508 16.2002 5.6682 15.9021 5.6607C15.8158 5.65883 15.7296 5.70195 15.6433 5.70945C15.5346 5.71695 15.4221 5.70945 15.3133 5.70758C15.0977 5.7057 14.8858 5.72445 14.6721 5.74695C14.2896 5.79008 13.8827 5.79383 13.5077 5.8782C13.2377 5.94008 12.949 5.9457 12.6808 6.01133C12.4315 6.0732 12.3208 6.46883 12.259 6.6807C12.2121 6.84195 12.1296 6.99008 12.0696 7.14945C12.0058 7.31445 11.9233 7.47383 11.8371 7.6332Z" fill="white"/>
<path d="M14.0275 10.6164C14.0143 10.6446 14.0031 10.6708 13.99 10.6971C13.885 10.9446 13.81 11.2014 13.6993 11.4471C13.585 11.6964 13.78 11.7208 13.9881 11.7208C14.8975 11.7208 15.7337 12.0133 16.6206 12.0789C16.825 12.0939 17.0218 12.1821 17.2225 12.2139C17.4625 12.2514 17.4643 12.0658 17.5562 11.8802C17.635 11.7208 17.6912 11.5614 17.7606 11.4002C17.9125 11.0477 18.0156 10.6877 18.1525 10.3277C18.2331 10.1158 18.2968 9.90019 18.37 9.68644C18.4018 9.59269 18.4656 9.50832 18.49 9.41082C18.5125 9.32082 18.5125 9.25332 18.55 9.1652C18.6006 9.0452 18.5968 9.00019 18.475 8.95519C17.3987 8.55769 16.3131 8.42457 15.1712 8.41895C15.0981 8.41895 15.0362 8.45082 14.965 8.4527C14.7568 8.8802 14.5975 9.29832 14.425 9.74832C14.3106 10.0446 14.1568 10.3258 14.0275 10.6164ZM11.3631 16.2114C11.35 16.2377 11.3368 16.2639 11.3237 16.2921C11.2056 16.5339 11.1175 16.7871 10.9937 17.0252C10.8662 17.2689 11.0612 17.3008 11.2712 17.3121C11.7231 17.3346 12.1787 17.3608 12.6268 17.4339C13.045 17.5014 13.3993 17.6889 13.8006 17.7789C13.9731 17.8183 14.3968 17.9589 14.5656 17.9327C14.86 17.8877 14.9875 17.1958 15.0793 16.9596C15.2256 16.5771 15.3775 16.1964 15.5125 15.8083C15.6212 15.4971 15.8443 15.1914 15.91 14.8764C16.0262 14.2971 13.0506 14.1002 12.6231 14.0758C12.55 14.0721 12.4881 14.1002 12.415 14.0983C12.1862 14.5146 12.0043 14.9252 11.8075 15.3639C11.6762 15.6564 11.5093 15.9283 11.3631 16.2114Z" fill="white"/>
<path d="M16.0874 14.0194C16.0743 14.0456 16.0612 14.0719 16.048 14.1C15.9749 14.2462 15.9149 14.3962 15.8512 14.5462C15.8193 14.6194 15.6618 14.8425 15.6768 14.9119C15.7199 14.9437 15.7593 15 15.8005 15.0244C15.8587 15.06 15.913 15.0394 15.9899 15.0469C16.2655 15.075 16.5374 15.1481 16.8112 15.1856C17.2893 15.2531 17.7599 15.3337 18.2343 15.4237C18.8212 15.5362 19.3818 15.7294 19.9293 15.9637C20.0043 15.9975 20.1093 16.0987 20.1918 16.1119C20.263 16.1231 20.2762 16.095 20.323 16.0256C20.3962 15.9206 20.473 15.7931 20.5312 15.6806C20.6549 15.4387 20.6812 15.1444 20.773 14.8875C20.8724 14.6137 20.9568 14.3381 21.0637 14.07C21.1537 13.8469 21.2137 13.6087 21.3149 13.3912C21.5137 12.9656 21.3505 12.8812 20.953 12.6694C19.9237 12.1181 18.4949 11.9437 17.3455 11.8819C17.2705 11.8781 17.2105 11.9062 17.1374 11.9044C16.9087 12.3206 16.7268 12.7312 16.5299 13.17C16.4005 13.4625 16.2318 13.7344 16.0874 14.0194ZM18.6993 8.33437C18.6768 8.38312 18.6543 8.43374 18.6299 8.48249C18.5643 8.61937 18.5043 8.76749 18.4499 8.90999C18.4068 9.02624 18.3149 9.12749 18.3205 9.26062C18.403 9.25687 18.4987 9.29999 18.5793 9.32249C18.7555 9.37312 18.9355 9.36374 19.1118 9.40499C19.2674 9.44062 19.4062 9.47812 19.5655 9.50062C19.9893 9.55874 20.4074 9.64124 20.8255 9.71999C21.1349 9.77812 21.4387 9.86062 21.7387 9.95999C21.8718 10.005 22.2974 10.2244 22.4193 10.1175C22.4699 10.0725 22.498 9.96562 22.5224 9.90374C22.6312 9.63937 22.738 9.35062 22.813 9.07312C22.8824 8.81812 22.9837 8.58749 23.0699 8.33999C23.1562 8.09812 23.1955 7.84499 23.2799 7.60687C23.3099 7.52437 23.3643 7.44937 23.4018 7.37062C23.518 7.13249 23.4412 6.91124 23.2012 6.80249C22.8693 6.65062 22.5093 6.55124 22.1568 6.46687C21.7237 6.36562 21.2812 6.29624 20.8387 6.24937C20.6493 6.22874 20.4674 6.17624 20.278 6.14812C20.1337 6.12562 19.978 6.06374 19.8393 6.05249C19.6518 6.03562 19.378 6.89812 19.2899 7.06687C19.0724 7.48124 18.898 7.91062 18.6993 8.33437Z" fill="white"/>
</svg>
