<svg width="24" height="24" viewBox="0 0 24 24" fill="none" xmlns="http://www.w3.org/2000/svg">
<path d="M13.9405 6.33755C15.5735 7.26523 16.8567 7.99424 17.7709 8.66203C18.6913 9.33441 19.3721 10.0372 19.6159 10.9638C19.7947 11.6432 19.7947 12.358 19.6159 13.0374C19.3721 13.964 18.6913 14.6667 17.7709 15.3391C16.8567 16.0069 15.5735 16.7359 13.9406 17.6636C12.3632 18.5597 11.033 19.3154 10.0232 19.745C9.0053 20.1779 8.07729 20.3974 7.17536 20.1418C6.51252 19.9539 5.90941 19.5974 5.42356 19.1072C4.76419 18.442 4.49951 17.5225 4.37429 16.416C4.24998 15.3175 4.24999 13.8796 4.25 12.0507V11.9505C4.24999 10.1216 4.24998 8.68364 4.37429 7.58519C4.49951 6.47865 4.76419 5.55916 5.42356 4.8939C5.90941 4.40372 6.51252 4.04721 7.17536 3.85938C8.07729 3.6038 9.0053 3.82324 10.0232 4.2562C11.033 4.68571 12.3632 5.44139 13.9405 6.33755Z" fill="black"/>
</svg>
