<svg width="24" height="24" viewBox="0 0 24 24" fill="none" xmlns="http://www.w3.org/2000/svg">
<path fill-rule="evenodd" clip-rule="evenodd" d="M10.7503 4.00049C10.7503 2.6198 11.8696 1.50052 13.2503 1.50049C14.631 1.50046 15.7503 2.61976 15.7503 4.00049C15.7503 5.38118 14.631 6.50046 13.2503 6.50049C11.8696 6.50052 10.7503 5.38122 10.7503 4.00049ZM9.46536 10.1649C7.79175 10.944 6.21236 12.274 5.63525 13.5244C5.34596 14.1512 4.6033 14.4248 3.97649 14.1355C3.34967 13.8462 3.07605 13.1036 3.36535 12.4767C4.28825 10.4771 6.45886 8.80691 8.41024 7.89846C9.40185 7.43682 10.4618 7.11133 11.4142 7.07546C12.3275 7.04107 13.5396 7.28394 14.1183 8.44132C14.1595 8.52372 14.1953 8.60758 14.2262 8.69236C14.2751 8.76042 14.4116 8.91857 14.7513 9.12848C15.185 9.3966 15.7848 9.6444 16.4521 9.82516C17.1165 10.0051 17.7894 10.1028 18.3512 10.106C18.9634 10.1095 19.2478 9.99989 19.3069 9.96047C19.8813 9.57753 20.6574 9.73275 21.0404 10.3072C21.4233 10.8816 21.2681 11.6577 20.6937 12.0406C20.0028 12.5012 19.0997 12.6103 18.3369 12.606C17.5237 12.6013 16.6341 12.4646 15.7985 12.2382C15.2196 12.0814 14.6382 11.8739 14.1054 11.6185C14.0939 11.6593 14.0821 11.7002 14.0701 11.7412C13.9301 12.2186 13.7489 12.7241 13.5352 13.2453C15.0537 14.6172 16.4325 16.8048 16.7026 20.2505H17.5003C18.1907 20.2505 18.7503 20.8102 18.7503 21.5005C18.7503 22.1909 18.1907 22.7505 17.5003 22.7505H15.5003C14.8099 22.7505 14.2503 22.1909 14.2503 21.5005C14.2503 18.5568 13.3713 16.7619 12.3911 15.6405C11.4958 17.3013 10.3655 19.0284 9.19475 20.461C9.52974 20.6853 9.7503 21.0671 9.7503 21.5005C9.7503 22.1909 9.19066 22.7505 8.5003 22.7505H6.5003C5.98003 22.7505 5.51416 22.4283 5.33064 21.9414C5.14713 21.4546 5.28435 20.905 5.67516 20.5616C7.1686 19.2492 8.95925 16.7679 10.2594 14.3256C10.3239 14.2044 10.3869 14.0839 10.4483 13.9643C10.1185 13.6613 9.76719 13.2532 9.56987 12.6872C9.32965 11.9982 9.38091 11.2661 9.61911 10.4988C9.66687 10.3449 9.72318 10.1862 9.7881 10.0222C9.68248 10.0664 9.57481 10.1139 9.46536 10.1649Z" fill="currentColor" fill-opacity="0.9"/>
</svg>
